<svg id="Capa_1" data-name="Capa 1" xmlns="http://www.w3.org/2000/svg" viewBox="0 0 299.39 297.04"><defs><style>.cls-1,.cls-3{opacity:0.42;}.cls-2,.cls-3{fill:#f2f2f2;stroke:#f2f2f2;stroke-miterlimit:10;stroke-width:0.25px;}</style></defs><title>icons_bk</title><g class="cls-1"><path class="cls-2" d="M55.38,56.07l-31,15.74A.94.94,0,0,1,23,71.37L12.14,50a1,1,0,0,1,.13-1.07l15.68-19.5a.85.85,0,0,1,.62-.32l12.6-1.68a1,1,0,0,1,1,.49L55.82,54.72A.94.94,0,0,1,55.38,56.07Zm-31,13.5L53.58,54.74,40.74,29.41,29.21,31l-15,18.6Z" transform="translate(-1.91 -2.21)"/><path class="cls-2" d="M44.59,61.54a.94.94,0,0,1-1.34-.44L28.09,31.22a1,1,0,1,1,1.78-.9L45,60.2A.94.94,0,0,1,44.59,61.54Z" transform="translate(-1.91 -2.21)"/><path class="cls-2" d="M18.42,52.39a1.2,1.2,0,0,1-1.21-.17,1,1,0,0,1,0-1.48L27.92,40.39a1,1,0,1,1,1.44,1.51L18.69,52.25Z" transform="translate(-1.91 -2.21)"/><path class="cls-2" d="M20.82,57.11a1,1,0,0,1-1.25-.26,1,1,0,0,1,.17-1.43L31,46.32a1,1,0,1,1,1.26,1.6L21,57Z" transform="translate(-1.91 -2.21)"/><path class="cls-2" d="M23.17,61.75a1.06,1.06,0,0,1-1.3-.35A1,1,0,0,1,22.17,60l12-7.76a1,1,0,0,1,1.08,1.69l-12,7.76Z" transform="translate(-1.91 -2.21)"/><path class="cls-2" d="M38.23,60.06,25.56,66.48a1,1,0,1,1-.9-1.78l12.66-6.42a1,1,0,0,1,.9,1.78Z" transform="translate(-1.91 -2.21)"/><path class="cls-2" d="M65.37,51,51.72,57.92a1,1,0,0,1-.9-1.78l12.75-6.47L45.71,14.44,31.59,16.67l-9,11.05,3,6a1,1,0,0,1-1.78.9L20.51,28a.87.87,0,0,1,.13-1.07l9.59-11.82a1.7,1.7,0,0,1,.58-.41L46.1,12.34a1.2,1.2,0,0,1,1.08.58L65.81,49.66A.94.94,0,0,1,65.37,51Z" transform="translate(-1.91 -2.21)"/><path class="cls-2" d="M44.5,23.12a.94.94,0,0,1-1.34-.44l-1.76-3.48a1,1,0,1,1,1.78-.9l1.76,3.48A.94.94,0,0,1,44.5,23.12Z" transform="translate(-1.91 -2.21)"/><path class="cls-2" d="M47.67,29.37a.94.94,0,0,1-1.34-.44l-1.76-3.48a1,1,0,1,1,1.78-.9L48.11,28A.94.94,0,0,1,47.67,29.37Z" transform="translate(-1.91 -2.21)"/><path class="cls-2" d="M50.88,35.7a.94.94,0,0,1-1.34-.44l-1.81-3.57a1,1,0,1,1,1.78-.9l1.81,3.57A.94.94,0,0,1,50.88,35.7Z" transform="translate(-1.91 -2.21)"/><path class="cls-2" d="M54,41.94a.94.94,0,0,1-1.34-.44L50.94,38a1,1,0,1,1,1.78-.9l1.76,3.48A.94.94,0,0,1,54,41.94Z" transform="translate(-1.91 -2.21)"/><path class="cls-2" d="M57.21,48.19a.94.94,0,0,1-1.34-.44L54.1,44.27a1,1,0,0,1,1.78-.9l1.76,3.48A.94.94,0,0,1,57.21,48.19Z" transform="translate(-1.91 -2.21)"/></g><g class="cls-1"><rect class="cls-2" x="91.62" y="136.6" width="3.54" height="4.03" transform="translate(-57.84 61.31) rotate(-29.33)"/><rect class="cls-2" x="97.79" y="133.13" width="3.54" height="4.03" transform="translate(-55.35 63.89) rotate(-29.33)"/><rect class="cls-2" x="103.96" y="129.67" width="3.54" height="4.03" transform="translate(-52.86 66.47) rotate(-29.33)"/><rect class="cls-2" x="95.26" y="143.07" width="3.54" height="4.03" transform="translate(-60.55 63.92) rotate(-29.33)"/><rect class="cls-2" x="101.43" y="139.6" width="3.54" height="4.03" transform="translate(-58.05 66.5) rotate(-29.33)"/><rect class="cls-2" x="107.6" y="136.13" width="3.54" height="4.03" transform="translate(-55.56 69.08) rotate(-29.33)"/><rect class="cls-2" x="98.89" y="149.54" width="3.54" height="4.03" transform="translate(-63.25 66.54) rotate(-29.33)"/><rect class="cls-2" x="105.06" y="146.07" width="3.54" height="4.03" transform="translate(-60.76 69.11) rotate(-29.33)"/><rect class="cls-2" x="111.23" y="142.6" width="3.54" height="4.03" transform="translate(-58.27 71.69) rotate(-29.33)"/><rect class="cls-2" x="111.09" y="125.66" width="3.54" height="4.03" transform="translate(-49.99 69.45) rotate(-29.33)"/><rect class="cls-2" x="117.26" y="122.19" width="3.54" height="4.03" transform="translate(-47.5 72.03) rotate(-29.33)"/><rect class="cls-2" x="123.43" y="118.73" width="3.54" height="4.03" transform="translate(-45.01 74.61) rotate(-29.33)"/><rect class="cls-2" x="114.72" y="132.13" width="3.54" height="4.03" transform="translate(-52.69 72.06) rotate(-29.33)"/><rect class="cls-2" x="120.89" y="128.66" width="3.54" height="4.03" transform="translate(-50.2 74.64) rotate(-29.33)"/><rect class="cls-2" x="127.07" y="125.2" width="3.54" height="4.03" transform="translate(-47.71 77.22) rotate(-29.33)"/><rect class="cls-2" x="118.36" y="138.6" width="3.54" height="4.03" transform="translate(-55.39 74.67) rotate(-29.33)"/><rect class="cls-2" x="124.53" y="135.13" width="3.54" height="4.03" transform="translate(-52.9 77.25) rotate(-29.33)"/><rect class="cls-2" x="130.7" y="131.66" width="3.54" height="4.03" transform="translate(-50.41 79.83) rotate(-29.33)"/><rect class="cls-2" x="103.82" y="112.73" width="3.54" height="4.03" transform="translate(-44.58 64.23) rotate(-29.33)"/><rect class="cls-2" x="109.99" y="109.26" width="3.54" height="4.03" transform="translate(-42.09 66.81) rotate(-29.33)"/><rect class="cls-2" x="116.16" y="105.79" width="3.54" height="4.03" transform="translate(-39.6 69.39) rotate(-29.33)"/><rect class="cls-2" x="107.45" y="119.19" width="3.54" height="4.03" transform="translate(-47.28 66.84) rotate(-29.33)"/><rect class="cls-2" x="113.62" y="115.73" width="3.54" height="4.03" transform="translate(-44.79 69.42) rotate(-29.33)"/><rect class="cls-2" x="119.8" y="112.26" width="3.54" height="4.03" transform="translate(-42.3 72) rotate(-29.33)"/><path class="cls-2" d="M140.21,137.72l-21.1-37.6L94,103.87l11.66,20.74L82,128.14l18.06,32.13-1.74,1,1.39,2.48,43.64-24.52L142,136.73Zm-20.69,11.63L112,153.6l-1.58-2.81-3.09,1.74,1.58,2.81-7.58,4.26L84.24,129.23l22.14-3.31ZM139,138.41l-7.56,4.25-1.58-2.81-3.09,1.74,1.58,2.81-7.58,4.26-13.44-23.91-.19-.34h0L96.21,105l22.14-3.31Z" transform="translate(-1.91 -2.21)"/></g><path class="cls-3" d="M43.45,104.87a.94.94,0,0,0,.37-1.37L43,102a1,1,0,1,0-1.73,1l.85,1.47A1,1,0,0,0,43.45,104.87Z" transform="translate(-1.91 -2.21)"/><path class="cls-3" d="M47.62,102.49a.94.94,0,0,0,.37-1.37l-.85-1.47a1,1,0,1,0-1.73,1l.85,1.47A.94.94,0,0,0,47.62,102.49Z" transform="translate(-1.91 -2.21)"/><path class="cls-3" d="M51.69,100.15a.94.94,0,0,0,.37-1.37l-.85-1.47a1,1,0,0,0-1.73,1l.85,1.47A1,1,0,0,0,51.69,100.15Z" transform="translate(-1.91 -2.21)"/><path class="cls-3" d="M46.94,110.95a.94.94,0,0,0,.37-1.37l-.85-1.47a1,1,0,0,0-1.73,1l.85,1.47A1,1,0,0,0,46.94,110.95Z" transform="translate(-1.91 -2.21)"/><path class="cls-3" d="M51.1,108.56a.94.94,0,0,0,.37-1.37l-.85-1.47a1,1,0,1,0-1.73,1l.85,1.47A.94.94,0,0,0,51.1,108.56Z" transform="translate(-1.91 -2.21)"/><path class="cls-3" d="M55.18,106.22a.94.94,0,0,0,.37-1.37l-.85-1.47a1,1,0,1,0-1.73,1l.85,1.47A1,1,0,0,0,55.18,106.22Z" transform="translate(-1.91 -2.21)"/><path class="cls-3" d="M50.42,117a.94.94,0,0,0,.37-1.37l-.85-1.47a1,1,0,0,0-1.73,1l.85,1.47A1.08,1.08,0,0,0,50.42,117Z" transform="translate(-1.91 -2.21)"/><path class="cls-3" d="M54.59,114.63a.94.94,0,0,0,.37-1.37l-.85-1.47a1,1,0,1,0-1.73,1l.85,1.47A1,1,0,0,0,54.59,114.63Z" transform="translate(-1.91 -2.21)"/><path class="cls-3" d="M58.66,112.29a.94.94,0,0,0,.37-1.37l-.85-1.47a1,1,0,0,0-1.73,1l.85,1.47A1.08,1.08,0,0,0,58.66,112.29Z" transform="translate(-1.91 -2.21)"/><path class="cls-3" d="M53.86,123a.94.94,0,0,0,.37-1.37l-.85-1.47a1,1,0,0,0-1.73,1l.85,1.47A1,1,0,0,0,53.86,123Z" transform="translate(-1.91 -2.21)"/><path class="cls-3" d="M58,120.61a.94.94,0,0,0,.37-1.37l-.85-1.47a1,1,0,1,0-1.73,1l.85,1.47A.94.94,0,0,0,58,120.61Z" transform="translate(-1.91 -2.21)"/><path class="cls-3" d="M62.1,118.27a.94.94,0,0,0,.37-1.37l-.85-1.47a1,1,0,1,0-1.73,1l.85,1.47A1,1,0,0,0,62.1,118.27Z" transform="translate(-1.91 -2.21)"/><path class="cls-3" d="M57.34,129.07a.94.94,0,0,0,.37-1.37l-.85-1.47a1,1,0,0,0-1.73,1L56,128.7A1.08,1.08,0,0,0,57.34,129.07Z" transform="translate(-1.91 -2.21)"/><path class="cls-3" d="M61.5,126.68a.94.94,0,0,0,.37-1.37L61,123.85a1,1,0,1,0-1.73,1l.85,1.47A1,1,0,0,0,61.5,126.68Z" transform="translate(-1.91 -2.21)"/><path class="cls-3" d="M65.58,124.35a.94.94,0,0,0,.37-1.37l-.85-1.47a1,1,0,1,0-1.73,1l.85,1.47A1.08,1.08,0,0,0,65.58,124.35Z" transform="translate(-1.91 -2.21)"/><path class="cls-3" d="M14.73,117.09a.94.94,0,0,0-.37,1.37l.85,1.47a1,1,0,0,0,1.73-1l-.85-1.47A1,1,0,0,0,14.73,117.09Z" transform="translate(-1.91 -2.21)"/><path class="cls-3" d="M18.89,114.71a.94.94,0,0,0-.37,1.37l.85,1.47a1,1,0,0,0,1.73-1l-.85-1.47A1.08,1.08,0,0,0,18.89,114.71Z" transform="translate(-1.91 -2.21)"/><path class="cls-3" d="M23.05,112.32a.94.94,0,0,0-.37,1.37l.85,1.47a1,1,0,1,0,1.73-1l-.85-1.47A1.08,1.08,0,0,0,23.05,112.32Z" transform="translate(-1.91 -2.21)"/><path class="cls-3" d="M18.21,123.17a.94.94,0,0,0-.37,1.37l.85,1.47a1,1,0,1,0,1.73-1l-.85-1.47A.94.94,0,0,0,18.21,123.17Z" transform="translate(-1.91 -2.21)"/><path class="cls-3" d="M22.37,120.78a.94.94,0,0,0-.37,1.37l.85,1.47a1,1,0,0,0,1.73-1l-.85-1.47A1,1,0,0,0,22.37,120.78Z" transform="translate(-1.91 -2.21)"/><path class="cls-3" d="M26.54,118.39a.94.94,0,0,0-.37,1.37l.85,1.47a1,1,0,1,0,1.73-1l-.85-1.47A1,1,0,0,0,26.54,118.39Z" transform="translate(-1.91 -2.21)"/><path class="cls-3" d="M21.69,129.24a.94.94,0,0,0-.37,1.37l.85,1.47a1,1,0,1,0,1.73-1l-.85-1.47A.94.94,0,0,0,21.69,129.24Z" transform="translate(-1.91 -2.21)"/><path class="cls-3" d="M25.86,126.85a.94.94,0,0,0-.37,1.37l.85,1.47a1,1,0,0,0,1.73-1l-.85-1.47A1,1,0,0,0,25.86,126.85Z" transform="translate(-1.91 -2.21)"/><path class="cls-3" d="M30,124.46a.94.94,0,0,0-.37,1.37l.85,1.47a1,1,0,0,0,1.73-1l-.85-1.47A1,1,0,0,0,30,124.46Z" transform="translate(-1.91 -2.21)"/><path class="cls-3" d="M25.13,135.22a.94.94,0,0,0-.37,1.37l.85,1.47a1,1,0,1,0,1.73-1l-.85-1.47A1,1,0,0,0,25.13,135.22Z" transform="translate(-1.91 -2.21)"/><path class="cls-3" d="M29.29,132.83a.94.94,0,0,0-.37,1.37l.85,1.47a1,1,0,0,0,1.73-1l-.85-1.47A1.08,1.08,0,0,0,29.29,132.83Z" transform="translate(-1.91 -2.21)"/><path class="cls-3" d="M33.45,130.44a.94.94,0,0,0-.37,1.37l.85,1.47a1,1,0,1,0,1.73-1l-.85-1.47A1.08,1.08,0,0,0,33.45,130.44Z" transform="translate(-1.91 -2.21)"/><path class="cls-3" d="M28.61,141.29a.94.94,0,0,0-.37,1.37l.85,1.47a1,1,0,1,0,1.73-1L30,141.66A.94.94,0,0,0,28.61,141.29Z" transform="translate(-1.91 -2.21)"/><path class="cls-3" d="M32.77,138.9a.94.94,0,0,0-.37,1.37l.85,1.47a1,1,0,0,0,1.73-1l-.85-1.47A1,1,0,0,0,32.77,138.9Z" transform="translate(-1.91 -2.21)"/><path class="cls-3" d="M36.94,136.52a.94.94,0,0,0-.37,1.37l.85,1.47a1,1,0,0,0,1.73-1l-.85-1.47A1,1,0,0,0,36.94,136.52Z" transform="translate(-1.91 -2.21)"/><path class="cls-3" d="M78.25,126.53a1,1,0,1,0-1-1.73l-2.6,1.49L54.24,90.73a1,1,0,0,0-1-.48L30.33,92.46,22.17,78.23a.94.94,0,0,0-1.37-.37L4.07,87.47a.94.94,0,0,0-.37,1.37l12,21-9,5.18a.94.94,0,0,0-.37,1.37l21.25,37-3.21,1.84a1,1,0,1,0,1,1.73L78.3,126.62ZM52.86,92.33l20.11,35L56.23,137,31.74,94.3ZM5.93,88.71l15-8.61L54.18,138l-6.42,3.68-3.14-5.46,3.56-2a1,1,0,1,0-1-1.73l-3.56,2-2.89-5,3.56-2a1,1,0,0,0-1-1.73l-3.56,2-2.89-5,3.56-2a1,1,0,0,0-1-1.73l-3.56,2L33,116l3.56-2a1,1,0,0,0-1-1.73l-3.56,2-2.84-4.94,3.56-2a1,1,0,1,0-1-1.73l-3.56,2-1.64-2.86a.94.94,0,0,0-1.37-.37l-7.72,4.43Zm2.6,27.44,16.74-9.61L46,142.71l-16.74,9.61Z" transform="translate(-1.91 -2.21)"/><path class="cls-3" d="M11.65,92.45,21.19,87a1,1,0,1,0-1-1.73l-9.54,5.47a1,1,0,0,0,1,1.73Z" transform="translate(-1.91 -2.21)"/><path class="cls-3" d="M15.49,99.13,25,93.66a1,1,0,0,0-1-1.73L14.49,97.4a1,1,0,1,0,1,1.73Z" transform="translate(-1.91 -2.21)"/><path class="cls-3" d="M29.19,99.11a.94.94,0,0,0-1.37-.37l-9.54,5.47a1,1,0,1,0,1,1.73l9.54-5.47A.94.94,0,0,0,29.19,99.11Z" transform="translate(-1.91 -2.21)"/><g class="cls-1"><path class="cls-2" d="M115.88,40l-11.26,6.16a.51.51,0,0,1-.73-.21L97,33.26l-9.38,5.13,6.93,12.66a.51.51,0,0,1-.21.73L83.05,57.94a.51.51,0,0,1-.73-.21L69.93,35.07a.49.49,0,0,1,0-.41l7.49-25.3A.52.52,0,0,1,78,9l25.35,7.34a.49.49,0,0,1,.32.25L116.1,39.25A.51.51,0,0,1,115.88,40Zm-11.3,5,10.32-5.65-12-22L78.22,10.12,71,34.74l12,22L93.33,51.1,86.4,38.43a.51.51,0,0,1,.21-.73l10.32-5.65a.51.51,0,0,1,.73.21Z" transform="translate(-1.91 -2.21)"/><path class="cls-2" d="M107.28,15.67a.49.49,0,0,1-.41,0L76.33,6.77,72.44,19.93a.49.49,0,0,1-.46.38.51.51,0,0,1-.51-.27l-2.67-4.88-1.41.77,4.05,7.41a.49.49,0,0,1,0,.41l-4,13.55a.53.53,0,1,1-1-.3l4-13.38L66.19,16a.51.51,0,0,1,.21-.73L68.75,14a.51.51,0,0,1,.73.21l2.31,4.22L75.46,6a.52.52,0,0,1,.66-.36l31.06,9.09a.52.52,0,0,1,.36.66A.49.49,0,0,1,107.28,15.67Z" transform="translate(-1.91 -2.21)"/></g><path class="cls-3" d="M65.37,67.62a3.93,3.93,0,1,0,2.5,1.67A3.9,3.9,0,0,0,65.37,67.62Zm.19,5.3a1.78,1.78,0,0,1-2.41-.48,1.74,1.74,0,1,1,2.41.48Zm26.93,29L78.12,80.25a12.9,12.9,0,1,0-10.65,7.08l2.16,3.25a1.09,1.09,0,0,0,.7.47l3.3.66L73,95a1.09,1.09,0,0,0,.86,1.29l3.3.66-.66,3.3a1.09,1.09,0,0,0,.86,1.29l3.3.66-.67,3.3a1.09,1.09,0,0,0,.86,1.29l4.37.88a1.09,1.09,0,0,0,.82-.16l6.2-4.12A1.09,1.09,0,0,0,92.49,101.87Zm-23.34-17h0a10.84,10.84,0,0,1-1.22.22l-.06,0a10.67,10.67,0,1,1,7.68-16.51,10.66,10.66,0,0,1,.42,11.13l0,0c-.09.16-.18.31-.28.47h0a10.63,10.63,0,0,1-2.9,3h0l-.17.13h0a10.5,10.5,0,0,1-1,.59l-.26.12c-.28.13-.56.26-.85.37l-.21.08A10.62,10.62,0,0,1,69.15,84.86Zm16,20.57-2.85-.57.67-3.3a1.09,1.09,0,0,0-.86-1.29l-3.3-.66.66-3.3A1.09,1.09,0,0,0,78.62,95l-3.3-.66.67-3.3a1.09,1.09,0,0,0-.86-1.29L71.2,89l-1.36-2,.07,0,.78-.24.41-.15.6-.23.62-.29.4-.2c.35-.19.69-.39,1-.61l0,0,.15-.11L74,85l.23-.15.36-.26,10.77,16.2a1.09,1.09,0,1,0,1.82-1.21L76.26,83.18a7.85,7.85,0,0,0,.66-.79l13.15,19.78Z" transform="translate(-1.91 -2.21)"/><path class="cls-3" d="M119.55,95.33a.5.5,0,0,1-.23.08l-12,1a.5.5,0,0,1-.46-.23L87.57,66.06a.5.5,0,0,1,.38-.76l12.09-1a.5.5,0,0,1,.09,1l-11.26,1,18.65,29.17,11.73-1a.5.5,0,0,1,.31.92Z" transform="translate(-1.91 -2.21)"/><path class="cls-3" d="M100.35,65.17a.5.5,0,0,1-.7-.67L105.56,54a.5.5,0,1,1,.87.49h0L100.52,65A.5.5,0,0,1,100.35,65.17Z" transform="translate(-1.91 -2.21)"/><path class="cls-3" d="M119.55,95.33a.5.5,0,0,1-.7-.67l6-10.52a.5.5,0,0,1,.88.47v0l-6,10.51A.5.5,0,0,1,119.55,95.33Z" transform="translate(-1.91 -2.21)"/><path class="cls-3" d="M137.66,83.76a.5.5,0,0,1-.22.08L125.29,84.9a.5.5,0,1,1-.16-1h.07l12.14-1.07a.5.5,0,0,1,.32.92Z" transform="translate(-1.91 -2.21)"/><path class="cls-3" d="M138.33,44.53a.5.5,0,0,1-.22.08l-2.07.18a.5.5,0,0,1-.09-1l2.07-.18a.5.5,0,0,1,.32.92Z" transform="translate(-1.91 -2.21)"/><path class="cls-3" d="M137.66,83.75a.5.5,0,0,1-.7-.68l6.16-10.47L124.47,43.44l-4.28,7.32a.5.5,0,1,1-.88-.48v0l4.69-8a.5.5,0,0,1,.85,0l19.26,30.11a.5.5,0,0,1,0,.52l-6.31,10.74A.5.5,0,0,1,137.66,83.75Z" transform="translate(-1.91 -2.21)"/><path class="cls-3" d="M122.14,66a.5.5,0,0,1-.49,0c-.45-.22-11.08-5.41-13-8.45a6.85,6.85,0,0,1,11.54-7.38c1.94,3,2.19,14.87,2.21,15.37A.5.5,0,0,1,122.14,66ZM111.25,49a5.86,5.86,0,0,0-1.78,8.08c1.51,2.37,9.39,6.46,11.88,7.72-.09-2.77-.51-11.65-2-14A5.86,5.86,0,0,0,111.25,49Z" transform="translate(-1.91 -2.21)"/><path class="cls-3" d="M116.63,57.42a4.14,4.14,0,1,1,1.26-5.72h0A4.15,4.15,0,0,1,116.63,57.42Zm-3.92-6.13a3.14,3.14,0,1,0,4.34,1h0A3.15,3.15,0,0,0,112.71,51.29Z" transform="translate(-1.91 -2.21)"/><g class="cls-1"><path class="cls-2" d="M90.88,183l-11.26,6.16a.51.51,0,0,1-.73-.21L72,176.26l-9.38,5.13,6.93,12.66a.51.51,0,0,1-.21.73l-11.26,6.16a.51.51,0,0,1-.73-.21L44.93,178.07a.49.49,0,0,1,0-.41l7.49-25.3A.52.52,0,0,1,53,152l25.35,7.34a.49.49,0,0,1,.32.25L91.1,182.25A.51.51,0,0,1,90.88,183Zm-11.3,5,10.32-5.65-12-22-24.65-7.18L46,177.74l12,22,10.32-5.65L61.4,181.43a.51.51,0,0,1,.21-.73l10.32-5.65a.51.51,0,0,1,.73.21Z" transform="translate(-1.91 -2.21)"/><path class="cls-2" d="M82.28,158.67a.49.49,0,0,1-.41,0l-30.55-8.94-3.89,13.16a.49.49,0,0,1-.46.38.51.51,0,0,1-.51-.27l-2.67-4.88-1.41.77,4.05,7.41a.49.49,0,0,1,0,.41l-4,13.55a.53.53,0,0,1-1-.3l4-13.38L41.19,159a.51.51,0,0,1,.21-.73L43.75,157a.51.51,0,0,1,.73.21l2.31,4.22L50.46,149a.52.52,0,0,1,.66-.36l31.06,9.09a.52.52,0,0,1,.36.66A.49.49,0,0,1,82.28,158.67Z" transform="translate(-1.91 -2.21)"/></g><g class="cls-1"><path class="cls-2" d="M184.38,115.07l-31,15.74a.94.94,0,0,1-1.34-.44L141.14,109a1,1,0,0,1,.13-1.07l15.68-19.5a.85.85,0,0,1,.62-.32l12.6-1.68a1,1,0,0,1,1,.49l13.61,26.85A.94.94,0,0,1,184.38,115.07Zm-31,13.5,29.25-14.84L169.74,88.41,158.21,90l-15,18.6Z" transform="translate(-1.91 -2.21)"/><path class="cls-2" d="M173.59,120.54a.94.94,0,0,1-1.34-.44L157.09,90.22a1,1,0,0,1,1.78-.9L174,119.2A.94.94,0,0,1,173.59,120.54Z" transform="translate(-1.91 -2.21)"/><path class="cls-2" d="M147.42,111.39a1.2,1.2,0,0,1-1.21-.17,1,1,0,0,1,0-1.48l10.67-10.35a1,1,0,0,1,1.44,1.51l-10.67,10.35Z" transform="translate(-1.91 -2.21)"/><path class="cls-2" d="M149.82,116.11a1,1,0,0,1-1.25-.26,1,1,0,0,1,.17-1.43l11.31-9.1a1,1,0,1,1,1.26,1.6L150,116Z" transform="translate(-1.91 -2.21)"/><path class="cls-2" d="M152.17,120.75a1.06,1.06,0,0,1-1.3-.35,1,1,0,0,1,.31-1.39l12-7.76a1,1,0,0,1,1.08,1.69l-12,7.76Z" transform="translate(-1.91 -2.21)"/><path class="cls-2" d="M167.23,119.06l-12.66,6.42a1,1,0,1,1-.9-1.78l12.66-6.42a1,1,0,1,1,.9,1.78Z" transform="translate(-1.91 -2.21)"/><path class="cls-2" d="M194.37,110l-13.65,6.92a1,1,0,1,1-.9-1.78l12.75-6.47L174.71,73.44l-14.12,2.23-9,11.05,3,6a1,1,0,0,1-1.78.9L149.51,87a.87.87,0,0,1,.13-1.07l9.59-11.82a1.7,1.7,0,0,1,.58-.41l15.28-2.37a1.2,1.2,0,0,1,1.08.58l18.64,36.74A.94.94,0,0,1,194.37,110Z" transform="translate(-1.91 -2.21)"/><path class="cls-2" d="M173.5,82.12a.94.94,0,0,1-1.34-.44l-1.76-3.48a1,1,0,1,1,1.78-.9l1.76,3.48A.94.94,0,0,1,173.5,82.12Z" transform="translate(-1.91 -2.21)"/><path class="cls-2" d="M176.67,88.37a.94.94,0,0,1-1.34-.44l-1.76-3.48a1,1,0,0,1,1.78-.9L177.11,87A.94.94,0,0,1,176.67,88.37Z" transform="translate(-1.91 -2.21)"/><path class="cls-2" d="M179.88,94.7a.94.94,0,0,1-1.34-.44l-1.81-3.57a1,1,0,1,1,1.78-.9l1.81,3.57A.94.94,0,0,1,179.88,94.7Z" transform="translate(-1.91 -2.21)"/><path class="cls-2" d="M183,100.94a.94.94,0,0,1-1.34-.44L179.94,97a1,1,0,0,1,1.78-.9l1.76,3.48A.94.94,0,0,1,183,100.94Z" transform="translate(-1.91 -2.21)"/><path class="cls-2" d="M186.21,107.19a.94.94,0,0,1-1.34-.44l-1.76-3.48a1,1,0,0,1,1.78-.9l1.76,3.48A.94.94,0,0,1,186.21,107.19Z" transform="translate(-1.91 -2.21)"/></g><path class="cls-3" d="M16.37,180.62a3.93,3.93,0,1,0,2.5,1.67A3.9,3.9,0,0,0,16.37,180.62Zm.19,5.3a1.78,1.78,0,0,1-2.41-.48,1.74,1.74,0,1,1,2.41.48Zm26.93,29L29.12,193.25a12.9,12.9,0,1,0-10.65,7.08l2.16,3.25a1.09,1.09,0,0,0,.7.47l3.3.66L24,208a1.09,1.09,0,0,0,.86,1.29l3.3.66-.66,3.3a1.09,1.09,0,0,0,.86,1.29l3.3.66-.67,3.3a1.09,1.09,0,0,0,.86,1.29l4.37.88a1.09,1.09,0,0,0,.82-.16l6.2-4.12A1.09,1.09,0,0,0,43.49,214.87Zm-23.34-17h0a10.84,10.84,0,0,1-1.22.22l-.06,0a10.67,10.67,0,1,1,7.68-16.51,10.66,10.66,0,0,1,.42,11.13l0,0c-.09.16-.18.31-.28.47h0a10.63,10.63,0,0,1-2.9,3h0l-.17.13h0a10.5,10.5,0,0,1-1,.59l-.26.12c-.28.13-.56.26-.85.37l-.21.08A10.62,10.62,0,0,1,20.15,197.86Zm16,20.57-2.85-.57.67-3.3a1.09,1.09,0,0,0-.86-1.29l-3.3-.66.66-3.3a1.09,1.09,0,0,0-.86-1.29l-3.3-.66.67-3.3a1.09,1.09,0,0,0-.86-1.29L22.2,202l-1.36-2,.07,0,.78-.24.41-.15.6-.23.62-.29.4-.2c.35-.19.69-.39,1-.61l0,0,.15-.11.07,0,.23-.15.36-.26,10.77,16.2a1.09,1.09,0,1,0,1.82-1.21L27.26,196.18a7.85,7.85,0,0,0,.66-.79l13.15,19.78Z" transform="translate(-1.91 -2.21)"/><path class="cls-3" d="M206.37,74.62a3.93,3.93,0,1,0,2.5,1.67A3.9,3.9,0,0,0,206.37,74.62Zm.19,5.3a1.78,1.78,0,0,1-2.41-.48,1.74,1.74,0,1,1,2.41.48Zm26.93,29L219.12,87.25a12.9,12.9,0,1,0-10.65,7.08l2.16,3.25a1.09,1.09,0,0,0,.7.47l3.3.66L214,102a1.09,1.09,0,0,0,.86,1.29l3.3.66-.66,3.3a1.09,1.09,0,0,0,.86,1.29l3.3.66-.67,3.3a1.09,1.09,0,0,0,.86,1.29l4.37.88a1.09,1.09,0,0,0,.82-.16l6.2-4.12A1.09,1.09,0,0,0,233.49,108.87Zm-23.34-17h0a10.84,10.84,0,0,1-1.22.22l-.06,0a10.67,10.67,0,1,1,7.68-16.51,10.66,10.66,0,0,1,.42,11.13l0,0c-.09.16-.18.31-.28.47h0a10.63,10.63,0,0,1-2.9,3h0l-.17.13h0a10.5,10.5,0,0,1-1,.59l-.26.12c-.28.13-.56.26-.85.37l-.21.08A10.62,10.62,0,0,1,210.15,91.86Zm16,20.57-2.85-.57.67-3.3a1.09,1.09,0,0,0-.86-1.29l-3.3-.66.66-3.3a1.09,1.09,0,0,0-.86-1.29l-3.3-.66.67-3.3a1.09,1.09,0,0,0-.86-1.29L212.2,96l-1.36-2,.07,0,.78-.24.41-.15.6-.23.62-.29.4-.2c.35-.19.69-.39,1-.61l0,0,.15-.11.07,0,.23-.15.36-.26,10.77,16.2a1.09,1.09,0,0,0,1.82-1.21L217.26,90.18a7.85,7.85,0,0,0,.66-.79l13.15,19.78Z" transform="translate(-1.91 -2.21)"/><path class="cls-3" d="M111.55,227.33a.5.5,0,0,1-.23.08l-12,1a.5.5,0,0,1-.46-.23L79.57,198.06a.5.5,0,0,1,.38-.76l12.09-1a.5.5,0,0,1,.09,1l-11.26,1,18.65,29.17,11.73-1a.5.5,0,0,1,.31.92Z" transform="translate(-1.91 -2.21)"/><path class="cls-3" d="M92.35,197.17a.5.5,0,0,1-.7-.67L97.56,186a.5.5,0,1,1,.87.49h0L92.52,197A.5.5,0,0,1,92.35,197.17Z" transform="translate(-1.91 -2.21)"/><path class="cls-3" d="M111.55,227.33a.5.5,0,0,1-.7-.67l6-10.52a.5.5,0,0,1,.88.47v0l-6,10.51A.5.5,0,0,1,111.55,227.33Z" transform="translate(-1.91 -2.21)"/><path class="cls-3" d="M129.66,215.76a.5.5,0,0,1-.22.08l-12.14,1.06a.5.5,0,1,1-.16-1h.07l12.14-1.07a.5.5,0,0,1,.32.92Z" transform="translate(-1.91 -2.21)"/><path class="cls-3" d="M129.66,215.75a.5.5,0,0,1-.7-.68l6.16-10.47-18.65-29.17-4.28,7.32a.5.5,0,1,1-.88-.48v0l4.69-8a.5.5,0,0,1,.85,0l19.26,30.11a.5.5,0,0,1,0,.52l-6.31,10.74A.5.5,0,0,1,129.66,215.75Z" transform="translate(-1.91 -2.21)"/><path class="cls-3" d="M114.14,198a.5.5,0,0,1-.49,0c-.45-.22-11.08-5.41-13-8.45a6.85,6.85,0,0,1,11.54-7.38c1.94,3,2.19,14.87,2.21,15.37A.5.5,0,0,1,114.14,198Zm-10.89-17a5.86,5.86,0,0,0-1.78,8.08c1.51,2.37,9.39,6.46,11.88,7.72-.09-2.77-.51-11.65-2-14A5.86,5.86,0,0,0,103.25,181Z" transform="translate(-1.91 -2.21)"/><path class="cls-3" d="M108.63,189.42a4.14,4.14,0,1,1,1.26-5.72h0A4.15,4.15,0,0,1,108.63,189.42Zm-3.92-6.13a3.14,3.14,0,1,0,4.34,1h0A3.15,3.15,0,0,0,104.71,183.29Z" transform="translate(-1.91 -2.21)"/><path class="cls-3" d="M209.55,168.33a.5.5,0,0,1-.23.08l-12,1a.5.5,0,0,1-.46-.23l-19.26-30.12a.5.5,0,0,1,.38-.76l12.09-1a.5.5,0,0,1,.09,1l-11.26,1,18.65,29.17,11.73-1a.5.5,0,0,1,.31.92Z" transform="translate(-1.91 -2.21)"/><path class="cls-3" d="M190.35,138.17a.5.5,0,0,1-.7-.67L195.56,127a.5.5,0,1,1,.87.49h0L190.52,138A.5.5,0,0,1,190.35,138.17Z" transform="translate(-1.91 -2.21)"/><path class="cls-3" d="M209.55,168.33a.5.5,0,0,1-.7-.67l6-10.52a.5.5,0,0,1,.88.47v0l-6,10.51A.5.5,0,0,1,209.55,168.33Z" transform="translate(-1.91 -2.21)"/><path class="cls-3" d="M227.66,156.76a.5.5,0,0,1-.22.08l-12.14,1.06a.5.5,0,1,1-.16-1h.07l12.14-1.07a.5.5,0,0,1,.32.92Z" transform="translate(-1.91 -2.21)"/><path class="cls-3" d="M227.66,156.75a.5.5,0,0,1-.7-.68l6.16-10.47-18.65-29.17-4.28,7.32a.5.5,0,1,1-.88-.48v0l4.69-8a.5.5,0,0,1,.85,0l19.26,30.11a.5.5,0,0,1,0,.52l-6.31,10.74A.5.5,0,0,1,227.66,156.75Z" transform="translate(-1.91 -2.21)"/><path class="cls-3" d="M212.14,139a.5.5,0,0,1-.49,0c-.45-.22-11.08-5.41-13-8.45a6.85,6.85,0,0,1,11.54-7.38c1.94,3,2.19,14.87,2.21,15.37A.5.5,0,0,1,212.14,139Zm-10.89-17a5.86,5.86,0,0,0-1.78,8.08c1.51,2.37,9.39,6.46,11.88,7.72-.09-2.77-.51-11.65-2-14A5.86,5.86,0,0,0,201.25,122Z" transform="translate(-1.91 -2.21)"/><path class="cls-3" d="M206.63,130.42a4.14,4.14,0,1,1,1.26-5.72h0A4.15,4.15,0,0,1,206.63,130.42Zm-3.92-6.13a3.14,3.14,0,1,0,4.34,1h0A3.15,3.15,0,0,0,202.71,124.29Z" transform="translate(-1.91 -2.21)"/><g class="cls-1"><path class="cls-2" d="M281.88,85l-11.26,6.16a.51.51,0,0,1-.73-.21L263,78.26l-9.38,5.13,6.93,12.66a.51.51,0,0,1-.21.73l-11.26,6.16a.51.51,0,0,1-.73-.21L235.93,80.07a.49.49,0,0,1,0-.41l7.49-25.3A.52.52,0,0,1,244,54l25.35,7.34a.49.49,0,0,1,.32.25L282.1,84.25A.51.51,0,0,1,281.88,85Zm-11.3,5,10.32-5.65-12-22-24.65-7.18L237,79.74l12,22,10.32-5.65L252.4,83.43a.51.51,0,0,1,.21-.73l10.32-5.65a.51.51,0,0,1,.73.21Z" transform="translate(-1.91 -2.21)"/><path class="cls-2" d="M273.28,60.67a.49.49,0,0,1-.41,0l-30.55-8.94-3.89,13.16a.49.49,0,0,1-.46.38.51.51,0,0,1-.51-.27l-2.67-4.88-1.41.77,4.05,7.41a.49.49,0,0,1,0,.41l-4,13.55a.53.53,0,1,1-1-.3l4-13.38L232.19,61a.51.51,0,0,1,.21-.73L234.75,59a.51.51,0,0,1,.73.21l2.31,4.22L241.46,51a.52.52,0,0,1,.66-.36l31.06,9.09a.52.52,0,0,1,.36.66A.49.49,0,0,1,273.28,60.67Z" transform="translate(-1.91 -2.21)"/></g><g class="cls-1"><path class="cls-2" d="M222.88,255l-11.26,6.16a.51.51,0,0,1-.73-.21L204,248.26l-9.38,5.13,6.93,12.66a.51.51,0,0,1-.21.73l-11.26,6.16a.51.51,0,0,1-.73-.21l-12.39-22.65a.49.49,0,0,1,0-.41l7.49-25.3A.52.52,0,0,1,185,224l25.35,7.34a.49.49,0,0,1,.32.25l12.39,22.65A.51.51,0,0,1,222.88,255Zm-11.3,5,10.32-5.65-12-22-24.65-7.18L178,249.74l12,22,10.32-5.65-6.93-12.66a.51.51,0,0,1,.21-.73l10.32-5.65a.51.51,0,0,1,.73.21Z" transform="translate(-1.91 -2.21)"/><path class="cls-2" d="M214.28,230.67a.49.49,0,0,1-.41,0l-30.55-8.94-3.89,13.16a.49.49,0,0,1-.46.38.51.51,0,0,1-.51-.27l-2.67-4.88-1.41.77,4.05,7.41a.49.49,0,0,1,0,.41l-4,13.55a.53.53,0,0,1-1-.3l4-13.38L173.19,231a.51.51,0,0,1,.21-.73l2.35-1.28a.51.51,0,0,1,.73.21l2.31,4.22L182.46,221a.52.52,0,0,1,.66-.36l31.06,9.09a.52.52,0,0,1,.36.66A.49.49,0,0,1,214.28,230.67Z" transform="translate(-1.91 -2.21)"/></g><g class="cls-1"><rect class="cls-2" x="243.62" y="260.6" width="3.54" height="4.03" transform="translate(-99.1 151.68) rotate(-29.33)"/><rect class="cls-2" x="249.79" y="257.13" width="3.54" height="4.03" transform="translate(-96.61 154.26) rotate(-29.33)"/><rect class="cls-2" x="255.96" y="253.67" width="3.54" height="4.03" transform="translate(-94.12 156.84) rotate(-29.33)"/><rect class="cls-2" x="247.26" y="267.07" width="3.54" height="4.03" transform="translate(-101.8 154.29) rotate(-29.33)"/><rect class="cls-2" x="253.43" y="263.6" width="3.54" height="4.03" transform="translate(-99.31 156.87) rotate(-29.33)"/><rect class="cls-2" x="259.6" y="260.13" width="3.54" height="4.03" transform="translate(-96.82 159.45) rotate(-29.33)"/><rect class="cls-2" x="250.89" y="273.54" width="3.54" height="4.03" transform="matrix(0.87, -0.49, 0.49, 0.87, -104.51, 156.9)"/><rect class="cls-2" x="257.06" y="270.07" width="3.54" height="4.03" transform="translate(-102.02 159.48) rotate(-29.33)"/><rect class="cls-2" x="263.23" y="266.6" width="3.54" height="4.03" transform="translate(-99.53 162.06) rotate(-29.33)"/><rect class="cls-2" x="263.09" y="249.66" width="3.54" height="4.03" transform="translate(-91.25 159.81) rotate(-29.33)"/><rect class="cls-2" x="269.26" y="246.19" width="3.54" height="4.03" transform="translate(-88.75 162.39) rotate(-29.33)"/><rect class="cls-2" x="275.43" y="242.73" width="3.54" height="4.03" transform="translate(-86.26 164.97) rotate(-29.33)"/><rect class="cls-2" x="266.72" y="256.13" width="3.54" height="4.03" transform="translate(-93.95 162.42) rotate(-29.33)"/><rect class="cls-2" x="272.89" y="252.66" width="3.54" height="4.03" transform="translate(-91.46 165) rotate(-29.33)"/><rect class="cls-2" x="279.07" y="249.2" width="3.54" height="4.03" transform="translate(-88.97 167.58) rotate(-29.33)"/><rect class="cls-2" x="270.36" y="262.6" width="3.54" height="4.03" transform="translate(-96.65 165.03) rotate(-29.33)"/><rect class="cls-2" x="276.53" y="259.13" width="3.54" height="4.03" transform="translate(-94.16 167.61) rotate(-29.33)"/><rect class="cls-2" x="282.7" y="255.66" width="3.54" height="4.03" transform="translate(-91.67 170.19) rotate(-29.33)"/><rect class="cls-2" x="255.82" y="236.73" width="3.54" height="4.03" transform="translate(-85.84 154.59) rotate(-29.33)"/><rect class="cls-2" x="261.99" y="233.26" width="3.54" height="4.03" transform="translate(-83.35 157.17) rotate(-29.33)"/><rect class="cls-2" x="268.16" y="229.79" width="3.54" height="4.03" transform="translate(-80.86 159.75) rotate(-29.33)"/><rect class="cls-2" x="259.45" y="243.19" width="3.54" height="4.03" transform="translate(-88.54 157.2) rotate(-29.33)"/><rect class="cls-2" x="265.62" y="239.73" width="3.54" height="4.03" transform="translate(-86.05 159.78) rotate(-29.33)"/><rect class="cls-2" x="271.8" y="236.26" width="3.54" height="4.03" transform="translate(-83.56 162.36) rotate(-29.33)"/><path class="cls-2" d="M292.21,261.72l-21.1-37.6L246,227.87l11.66,20.74L234,252.14l18.06,32.13-1.74,1,1.39,2.48,43.64-24.52L294,260.73Zm-20.69,11.63L264,277.6l-1.58-2.81-3.09,1.74,1.58,2.81-7.58,4.26-17.06-30.36,22.14-3.31ZM291,262.41l-7.56,4.25-1.58-2.81-3.09,1.74,1.58,2.81-7.58,4.26-13.44-23.91-.19-.34h0L248.21,229l22.14-3.31Z" transform="translate(-1.91 -2.21)"/></g><g class="cls-1"><rect class="cls-2" x="141.62" y="39.6" width="3.54" height="4.03" transform="translate(-3.91 73.37) rotate(-29.33)"/><rect class="cls-2" x="147.79" y="36.13" width="3.54" height="4.03" transform="translate(-1.42 75.95) rotate(-29.33)"/><rect class="cls-2" x="153.96" y="32.67" width="3.54" height="4.03" transform="translate(1.07 78.53) rotate(-29.33)"/><rect class="cls-2" x="145.26" y="46.07" width="3.54" height="4.03" transform="translate(-6.61 75.98) rotate(-29.33)"/><rect class="cls-2" x="151.43" y="42.6" width="3.54" height="4.03" transform="translate(-4.12 78.56) rotate(-29.33)"/><rect class="cls-2" x="157.6" y="39.13" width="3.54" height="4.03" transform="translate(-1.63 81.14) rotate(-29.33)"/><rect class="cls-2" x="148.89" y="52.54" width="3.54" height="4.03" transform="matrix(0.87, -0.49, 0.49, 0.87, -9.32, 78.59)"/><rect class="cls-2" x="155.06" y="49.07" width="3.54" height="4.03" transform="translate(-6.83 81.17) rotate(-29.33)"/><rect class="cls-2" x="161.23" y="45.6" width="3.54" height="4.03" transform="translate(-4.34 83.75) rotate(-29.33)"/><rect class="cls-2" x="161.09" y="28.66" width="3.54" height="4.03" transform="translate(3.94 81.51) rotate(-29.33)"/><rect class="cls-2" x="167.26" y="25.19" width="3.54" height="4.03" transform="translate(6.43 84.09) rotate(-29.33)"/><rect class="cls-2" x="173.43" y="21.73" width="3.54" height="4.03" transform="translate(8.93 86.66) rotate(-29.33)"/><rect class="cls-2" x="164.72" y="35.13" width="3.54" height="4.03" transform="translate(1.24 84.12) rotate(-29.33)"/><rect class="cls-2" x="170.89" y="31.66" width="3.54" height="4.03" transform="translate(3.73 86.7) rotate(-29.33)"/><rect class="cls-2" x="177.07" y="28.2" width="3.54" height="4.03" transform="translate(6.22 89.27) rotate(-29.33)"/><rect class="cls-2" x="168.36" y="41.6" width="3.54" height="4.03" transform="translate(-1.46 86.73) rotate(-29.33)"/><rect class="cls-2" x="174.53" y="38.13" width="3.54" height="4.03" transform="translate(1.03 89.31) rotate(-29.33)"/><rect class="cls-2" x="180.7" y="34.66" width="3.54" height="4.03" transform="translate(3.52 91.88) rotate(-29.33)"/><rect class="cls-2" x="153.82" y="15.73" width="3.54" height="4.03" transform="translate(9.35 76.29) rotate(-29.33)"/><rect class="cls-2" x="159.99" y="12.26" width="3.54" height="4.03" transform="translate(11.84 78.86) rotate(-29.33)"/><rect class="cls-2" x="166.16" y="8.79" width="3.54" height="4.03" transform="translate(14.33 81.44) rotate(-29.33)"/><rect class="cls-2" x="157.45" y="22.19" width="3.54" height="4.03" transform="translate(6.65 78.9) rotate(-29.33)"/><rect class="cls-2" x="163.62" y="18.73" width="3.54" height="4.03" transform="translate(9.14 81.47) rotate(-29.33)"/><rect class="cls-2" x="169.8" y="15.26" width="3.54" height="4.03" transform="translate(11.63 84.05) rotate(-29.33)"/><path class="cls-2" d="M190.21,40.72l-21.1-37.6L144,6.87l11.66,20.74L132,31.14l18.06,32.13-1.74,1,1.39,2.48,43.64-24.52L192,39.73ZM169.52,52.35,162,56.6l-1.58-2.81-3.09,1.74,1.58,2.81-7.58,4.26L134.24,32.23l22.14-3.31ZM189,41.41l-7.56,4.25-1.58-2.81-3.09,1.74,1.58,2.81-7.58,4.26L157.33,27.74l-.19-.34h0L146.21,8l22.14-3.31Z" transform="translate(-1.91 -2.21)"/></g><path class="cls-3" d="M205.25,195.53a1,1,0,0,0-1-1.73l-2.6,1.49-20.41-35.56a1,1,0,0,0-1-.48l-22.94,2.21-8.16-14.22a.94.94,0,0,0-1.37-.37l-16.74,9.61a.94.94,0,0,0-.37,1.37l12,21-9,5.18a.94.94,0,0,0-.37,1.37l21.25,37-3.21,1.84a1,1,0,1,0,1,1.73l52.91-30.36Zm-25.39-34.2,20.11,35L183.23,206,158.74,163.3Zm-46.93-3.62,15-8.61L181.18,207l-6.42,3.68-3.14-5.46,3.56-2a1,1,0,0,0-1-1.73l-3.56,2-2.89-5,3.56-2a1,1,0,0,0-1-1.73l-3.56,2-2.89-5,3.56-2a1,1,0,0,0-1-1.73l-3.56,2L160,185l3.56-2a1,1,0,0,0-1-1.73l-3.56,2-2.84-4.94,3.56-2a1,1,0,0,0-1-1.73l-3.56,2-1.64-2.86a.94.94,0,0,0-1.37-.37l-7.72,4.43Zm2.6,27.44,16.74-9.61L173,211.71l-16.74,9.61Z" transform="translate(-1.91 -2.21)"/><path class="cls-3" d="M267.37,9.62a3.93,3.93,0,1,0,2.5,1.67A3.9,3.9,0,0,0,267.37,9.62Zm.19,5.3a1.78,1.78,0,0,1-2.41-.48,1.74,1.74,0,1,1,2.41.48Zm26.93,29L280.12,22.25a12.9,12.9,0,1,0-10.65,7.08l2.16,3.25a1.09,1.09,0,0,0,.7.47l3.3.66L275,37a1.09,1.09,0,0,0,.86,1.29l3.3.66-.66,3.3a1.09,1.09,0,0,0,.86,1.29l3.3.66-.67,3.3a1.09,1.09,0,0,0,.86,1.29l4.37.88a1.09,1.09,0,0,0,.82-.16l6.2-4.12A1.09,1.09,0,0,0,294.49,43.87Zm-23.34-17h0a10.84,10.84,0,0,1-1.22.22l-.06,0a10.67,10.67,0,1,1,7.68-16.51,10.66,10.66,0,0,1,.42,11.13l0,0c-.09.16-.18.31-.28.47h0a10.63,10.63,0,0,1-2.9,3h0l-.17.13h0a10.5,10.5,0,0,1-1,.59l-.26.12c-.28.13-.56.26-.85.37l-.21.08A10.62,10.62,0,0,1,271.15,26.86Zm16,20.57-2.85-.57.67-3.3a1.09,1.09,0,0,0-.86-1.29l-3.3-.66.66-3.3a1.09,1.09,0,0,0-.86-1.29l-3.3-.66.67-3.3a1.09,1.09,0,0,0-.86-1.29L273.2,31l-1.36-2,.07,0,.78-.24.41-.15.6-.23.62-.29.4-.2c.35-.19.69-.39,1-.61l0,0,.15-.11.07,0,.23-.15.36-.26,10.77,16.2a1.09,1.09,0,0,0,1.82-1.21L278.26,25.18a7.85,7.85,0,0,0,.66-.79l13.15,19.78Z" transform="translate(-1.91 -2.21)"/><g class="cls-1"><path class="cls-2" d="M241.38,46.07l-31,15.74a.94.94,0,0,1-1.34-.44L198.14,40a1,1,0,0,1,.13-1.07l15.68-19.5a.85.85,0,0,1,.62-.32l12.6-1.68a1,1,0,0,1,1,.49l13.61,26.85A.94.94,0,0,1,241.38,46.07Zm-31,13.5,29.25-14.84L226.74,19.41,215.21,21l-15,18.6Z" transform="translate(-1.91 -2.21)"/><path class="cls-2" d="M230.59,51.54a.94.94,0,0,1-1.34-.44L214.09,21.22a1,1,0,0,1,1.78-.9L231,50.2A.94.94,0,0,1,230.59,51.54Z" transform="translate(-1.91 -2.21)"/><path class="cls-2" d="M204.42,42.39a1.2,1.2,0,0,1-1.21-.17,1,1,0,0,1,0-1.48l10.67-10.35a1,1,0,0,1,1.44,1.51L204.69,42.25Z" transform="translate(-1.91 -2.21)"/><path class="cls-2" d="M206.82,47.11a1,1,0,0,1-1.25-.26,1,1,0,0,1,.17-1.43L217,36.32a1,1,0,1,1,1.26,1.6L207,47Z" transform="translate(-1.91 -2.21)"/><path class="cls-2" d="M209.17,51.75a1.06,1.06,0,0,1-1.3-.35,1,1,0,0,1,.31-1.39l12-7.76a1,1,0,0,1,1.08,1.69l-12,7.76Z" transform="translate(-1.91 -2.21)"/><path class="cls-2" d="M224.23,50.06l-12.66,6.42a1,1,0,1,1-.9-1.78l12.66-6.42a1,1,0,1,1,.9,1.78Z" transform="translate(-1.91 -2.21)"/><path class="cls-2" d="M251.37,41l-13.65,6.92a1,1,0,1,1-.9-1.78l12.75-6.47L231.71,4.44,217.59,6.67l-9,11.05,3,6a1,1,0,0,1-1.78.9L206.51,18a.87.87,0,0,1,.13-1.07l9.59-11.82a1.7,1.7,0,0,1,.58-.41L232.1,2.34a1.2,1.2,0,0,1,1.08.58l18.64,36.74A.94.94,0,0,1,251.37,41Z" transform="translate(-1.91 -2.21)"/><path class="cls-2" d="M230.5,13.12a.94.94,0,0,1-1.34-.44l-1.76-3.48a1,1,0,1,1,1.78-.9l1.76,3.48A.94.94,0,0,1,230.5,13.12Z" transform="translate(-1.91 -2.21)"/><path class="cls-2" d="M233.67,19.37a.94.94,0,0,1-1.34-.44l-1.76-3.48a1,1,0,0,1,1.78-.9L234.11,18A.94.94,0,0,1,233.67,19.37Z" transform="translate(-1.91 -2.21)"/><path class="cls-2" d="M236.88,25.7a.94.94,0,0,1-1.34-.44l-1.81-3.57a1,1,0,1,1,1.78-.9l1.81,3.57A.94.94,0,0,1,236.88,25.7Z" transform="translate(-1.91 -2.21)"/><path class="cls-2" d="M240,31.94a.94.94,0,0,1-1.34-.44L236.94,28a1,1,0,0,1,1.78-.9l1.76,3.48A.94.94,0,0,1,240,31.94Z" transform="translate(-1.91 -2.21)"/><path class="cls-2" d="M243.21,38.19a.94.94,0,0,1-1.34-.44l-1.76-3.48a1,1,0,0,1,1.78-.9l1.76,3.48A.94.94,0,0,1,243.21,38.19Z" transform="translate(-1.91 -2.21)"/></g><g class="cls-1"><path class="cls-2" d="M45.38,282.07l-31,15.74a.94.94,0,0,1-1.34-.44L2.14,276a1,1,0,0,1,.13-1.07l15.68-19.5a.85.85,0,0,1,.62-.32l12.6-1.68a1,1,0,0,1,1,.49l13.61,26.85A.94.94,0,0,1,45.38,282.07Zm-31,13.5,29.25-14.84L30.74,255.41,19.21,257l-15,18.6Z" transform="translate(-1.91 -2.21)"/><path class="cls-2" d="M34.59,287.54a.94.94,0,0,1-1.34-.44L18.09,257.22a1,1,0,1,1,1.78-.9L35,286.2A.94.94,0,0,1,34.59,287.54Z" transform="translate(-1.91 -2.21)"/><path class="cls-2" d="M8.42,278.39a1.2,1.2,0,0,1-1.21-.17,1,1,0,0,1,0-1.48l10.67-10.35a1,1,0,1,1,1.44,1.51L8.69,278.25Z" transform="translate(-1.91 -2.21)"/><path class="cls-2" d="M10.82,283.11a1,1,0,0,1-1.25-.26,1,1,0,0,1,.17-1.43L21,272.32a1,1,0,0,1,1.26,1.6L11,283Z" transform="translate(-1.91 -2.21)"/><path class="cls-2" d="M13.17,287.75a1.06,1.06,0,0,1-1.3-.35,1,1,0,0,1,.31-1.39l12-7.76a1,1,0,0,1,1.08,1.69l-12,7.76Z" transform="translate(-1.91 -2.21)"/><path class="cls-2" d="M28.23,286.06l-12.66,6.42a1,1,0,1,1-.9-1.78l12.66-6.42a1,1,0,0,1,.9,1.78Z" transform="translate(-1.91 -2.21)"/><path class="cls-2" d="M55.37,277l-13.65,6.92a1,1,0,1,1-.9-1.78l12.75-6.47L35.71,240.44l-14.12,2.23-9,11.05,3,6a1,1,0,1,1-1.78.9L10.51,254a.87.87,0,0,1,.13-1.07l9.59-11.82a1.7,1.7,0,0,1,.58-.41l15.28-2.37a1.2,1.2,0,0,1,1.08.58l18.64,36.74A.94.94,0,0,1,55.37,277Z" transform="translate(-1.91 -2.21)"/><path class="cls-2" d="M34.5,249.12a.94.94,0,0,1-1.34-.44l-1.76-3.48a1,1,0,0,1,1.78-.9l1.76,3.48A.94.94,0,0,1,34.5,249.12Z" transform="translate(-1.91 -2.21)"/><path class="cls-2" d="M37.67,255.37a.94.94,0,0,1-1.34-.44l-1.76-3.48a1,1,0,0,1,1.78-.9L38.11,254A.94.94,0,0,1,37.67,255.37Z" transform="translate(-1.91 -2.21)"/><path class="cls-2" d="M40.88,261.7a.94.94,0,0,1-1.34-.44l-1.81-3.57a1,1,0,1,1,1.78-.9l1.81,3.57A.94.94,0,0,1,40.88,261.7Z" transform="translate(-1.91 -2.21)"/><path class="cls-2" d="M44,267.94a.94.94,0,0,1-1.34-.44L40.94,264a1,1,0,1,1,1.78-.9l1.76,3.48A.94.94,0,0,1,44,267.94Z" transform="translate(-1.91 -2.21)"/><path class="cls-2" d="M47.21,274.19a.94.94,0,0,1-1.34-.44l-1.76-3.48a1,1,0,0,1,1.78-.9l1.76,3.48A.94.94,0,0,1,47.21,274.19Z" transform="translate(-1.91 -2.21)"/></g><path class="cls-3" d="M139.37,243.62a3.93,3.93,0,1,0,2.5,1.67A3.9,3.9,0,0,0,139.37,243.62Zm.19,5.3a1.78,1.78,0,0,1-2.41-.48,1.74,1.74,0,1,1,2.41.48Zm26.93,29-14.38-21.62a12.9,12.9,0,1,0-10.65,7.08l2.16,3.25a1.09,1.09,0,0,0,.7.47l3.3.66L147,271a1.09,1.09,0,0,0,.86,1.29l3.3.66-.66,3.3a1.09,1.09,0,0,0,.86,1.29l3.3.66-.67,3.3a1.09,1.09,0,0,0,.86,1.29l4.37.88a1.09,1.09,0,0,0,.82-.16l6.2-4.12A1.09,1.09,0,0,0,166.49,277.87Zm-23.34-17h0a10.84,10.84,0,0,1-1.22.22l-.06,0a10.67,10.67,0,1,1,7.68-16.51,10.66,10.66,0,0,1,.42,11.13l0,0c-.09.16-.18.31-.28.47h0a10.63,10.63,0,0,1-2.9,3h0l-.17.13h0a10.5,10.5,0,0,1-1,.59l-.26.12c-.28.13-.56.26-.85.37l-.21.08A10.62,10.62,0,0,1,143.15,260.86Zm16,20.57-2.85-.57.67-3.3a1.09,1.09,0,0,0-.86-1.29l-3.3-.66.66-3.3a1.09,1.09,0,0,0-.86-1.29l-3.3-.66.67-3.3a1.09,1.09,0,0,0-.86-1.29L145.2,265l-1.36-2,.07,0,.78-.24.41-.15.6-.23.62-.29.4-.2c.35-.19.69-.39,1-.61l0,0,.15-.11.07,0,.23-.15.36-.26,10.77,16.2a1.09,1.09,0,0,0,1.82-1.21l-10.93-16.43a7.85,7.85,0,0,0,.66-.79l13.15,19.78Z" transform="translate(-1.91 -2.21)"/><path class="cls-3" d="M217.37,177.62a3.93,3.93,0,1,0,2.5,1.67A3.9,3.9,0,0,0,217.37,177.62Zm.19,5.3a1.78,1.78,0,0,1-2.41-.48,1.74,1.74,0,1,1,2.41.48Zm26.93,29-14.38-21.62a12.9,12.9,0,1,0-10.65,7.08l2.16,3.25a1.09,1.09,0,0,0,.7.47l3.3.66L225,205a1.09,1.09,0,0,0,.86,1.29l3.3.66-.66,3.3a1.09,1.09,0,0,0,.86,1.29l3.3.66-.67,3.3a1.09,1.09,0,0,0,.86,1.29l4.37.88a1.09,1.09,0,0,0,.82-.16l6.2-4.12A1.09,1.09,0,0,0,244.49,211.87Zm-23.34-17h0a10.84,10.84,0,0,1-1.22.22l-.06,0a10.67,10.67,0,1,1,7.68-16.51,10.66,10.66,0,0,1,.42,11.13l0,0c-.09.16-.18.31-.28.47h0a10.63,10.63,0,0,1-2.9,3h0l-.17.13h0a10.5,10.5,0,0,1-1,.59l-.26.12c-.28.13-.56.26-.85.37l-.21.08A10.62,10.62,0,0,1,221.15,194.86Zm16,20.57-2.85-.57.67-3.3a1.09,1.09,0,0,0-.86-1.29l-3.3-.66.66-3.3a1.09,1.09,0,0,0-.86-1.29l-3.3-.66.67-3.3a1.09,1.09,0,0,0-.86-1.29L223.2,199l-1.36-2,.07,0,.78-.24.41-.15.6-.23.62-.29.4-.2c.35-.19.69-.39,1-.61l0,0,.15-.11.07,0,.23-.15.36-.26,10.77,16.2a1.09,1.09,0,0,0,1.82-1.21l-10.93-16.43a7.85,7.85,0,0,0,.66-.79l13.15,19.78Z" transform="translate(-1.91 -2.21)"/><g class="cls-1"><path class="cls-2" d="M283.38,145.07l-31,15.74a.94.94,0,0,1-1.34-.44L240.14,139a1,1,0,0,1,.13-1.07l15.68-19.5a.85.85,0,0,1,.62-.32l12.6-1.68a1,1,0,0,1,1,.49l13.61,26.85A.94.94,0,0,1,283.38,145.07Zm-31,13.5,29.25-14.84-12.85-25.33L257.21,120l-15,18.6Z" transform="translate(-1.91 -2.21)"/><path class="cls-2" d="M272.59,150.54a.94.94,0,0,1-1.34-.44l-15.15-29.88a1,1,0,1,1,1.78-.9L273,149.2A.94.94,0,0,1,272.59,150.54Z" transform="translate(-1.91 -2.21)"/><path class="cls-2" d="M246.42,141.39a1.2,1.2,0,0,1-1.21-.17,1,1,0,0,1,0-1.48l10.67-10.35a1,1,0,0,1,1.44,1.51l-10.67,10.35Z" transform="translate(-1.91 -2.21)"/><path class="cls-2" d="M248.82,146.11a1,1,0,0,1-1.25-.26,1,1,0,0,1,.17-1.43l11.31-9.1a1,1,0,1,1,1.26,1.6L249,146Z" transform="translate(-1.91 -2.21)"/><path class="cls-2" d="M251.17,150.75a1.06,1.06,0,0,1-1.3-.35,1,1,0,0,1,.31-1.39l12-7.76a1,1,0,0,1,1.08,1.69l-12,7.76Z" transform="translate(-1.91 -2.21)"/><path class="cls-2" d="M266.23,149.06l-12.66,6.42a1,1,0,1,1-.9-1.78l12.66-6.42a1,1,0,1,1,.9,1.78Z" transform="translate(-1.91 -2.21)"/><path class="cls-2" d="M293.37,140l-13.65,6.92a1,1,0,1,1-.9-1.78l12.75-6.47-17.87-35.23-14.12,2.23-9,11.05,3,6a1,1,0,0,1-1.78.9l-3.35-6.6a.87.87,0,0,1,.13-1.07l9.59-11.82a1.7,1.7,0,0,1,.58-.41l15.28-2.37a1.2,1.2,0,0,1,1.08.58l18.64,36.74A.94.94,0,0,1,293.37,140Z" transform="translate(-1.91 -2.21)"/><path class="cls-2" d="M272.5,112.12a.94.94,0,0,1-1.34-.44l-1.76-3.48a1,1,0,0,1,1.78-.9l1.76,3.48A.94.94,0,0,1,272.5,112.12Z" transform="translate(-1.91 -2.21)"/><path class="cls-2" d="M275.67,118.37a.94.94,0,0,1-1.34-.44l-1.76-3.48a1,1,0,0,1,1.78-.9l1.76,3.48A.94.94,0,0,1,275.67,118.37Z" transform="translate(-1.91 -2.21)"/><path class="cls-2" d="M278.88,124.7a.94.94,0,0,1-1.34-.44l-1.81-3.57a1,1,0,1,1,1.78-.9l1.81,3.57A.94.94,0,0,1,278.88,124.7Z" transform="translate(-1.91 -2.21)"/><path class="cls-2" d="M282,130.94a.94.94,0,0,1-1.34-.44L278.94,127a1,1,0,1,1,1.78-.9l1.76,3.48A.94.94,0,0,1,282,130.94Z" transform="translate(-1.91 -2.21)"/><path class="cls-2" d="M285.21,137.19a.94.94,0,0,1-1.34-.44l-1.76-3.48a1,1,0,0,1,1.78-.9l1.76,3.48A.94.94,0,0,1,285.21,137.19Z" transform="translate(-1.91 -2.21)"/></g><g class="cls-1"><path class="cls-2" d="M300.88,200l-11.26,6.16a.51.51,0,0,1-.73-.21L282,193.26l-9.38,5.13,6.93,12.66a.51.51,0,0,1-.21.73l-11.26,6.16a.51.51,0,0,1-.73-.21l-12.39-22.65a.49.49,0,0,1,0-.41l7.49-25.3A.52.52,0,0,1,263,169l25.35,7.34a.49.49,0,0,1,.32.25l12.39,22.65A.51.51,0,0,1,300.88,200Zm-11.3,5,10.32-5.65-12-22-24.65-7.18L256,194.74l12,22,10.32-5.65-6.93-12.66a.51.51,0,0,1,.21-.73l10.32-5.65a.51.51,0,0,1,.73.21Z" transform="translate(-1.91 -2.21)"/><path class="cls-2" d="M292.28,175.67a.49.49,0,0,1-.41,0l-30.55-8.94-3.89,13.16a.49.49,0,0,1-.46.38.51.51,0,0,1-.51-.27l-2.67-4.88-1.41.77,4.05,7.41a.49.49,0,0,1,0,.41l-4,13.55a.53.53,0,0,1-1-.3l4-13.38L251.19,176a.51.51,0,0,1,.21-.73l2.35-1.28a.51.51,0,0,1,.73.21l2.31,4.22L260.46,166a.52.52,0,0,1,.66-.36l31.06,9.09a.52.52,0,0,1,.36.66A.49.49,0,0,1,292.28,175.67Z" transform="translate(-1.91 -2.21)"/></g><path class="cls-3" d="M128.25,268.53a1,1,0,1,0-1-1.73l-2.6,1.49-20.41-35.56a1,1,0,0,0-1-.48l-22.94,2.21-8.16-14.22a.94.94,0,0,0-1.37-.37l-16.74,9.61a.94.94,0,0,0-.37,1.37l12,21-9,5.18a.94.94,0,0,0-.37,1.37l21.25,37-3.21,1.84a1,1,0,1,0,1,1.73l52.91-30.36Zm-25.39-34.2,20.11,35L106.23,279,81.74,236.3Zm-46.93-3.62,15-8.61L104.18,280l-6.42,3.68-3.14-5.46,3.56-2a1,1,0,1,0-1-1.73l-3.56,2-2.89-5,3.56-2a1,1,0,0,0-1-1.73l-3.56,2-2.89-5,3.56-2a1,1,0,0,0-1-1.73l-3.56,2L83,258l3.56-2a1,1,0,0,0-1-1.73l-3.56,2-2.84-4.94,3.56-2a1,1,0,1,0-1-1.73l-3.56,2-1.64-2.86a.94.94,0,0,0-1.37-.37l-7.72,4.43Zm2.6,27.44,16.74-9.61L96,284.71l-16.74,9.61Z" transform="translate(-1.91 -2.21)"/></svg>